<svg width="36" height="23" viewBox="0 0 36 23" fill="none" xmlns="http://www.w3.org/2000/svg">
<path d="M0.217322 11.5908L11.3428 21.9974C11.6326 22.2684 12.1019 22.2684 12.3916 21.9974C12.6813 21.7264 12.6813 21.2874 12.3916 21.0164L2.53219 11.7941L34.8598 11.7941C35.2698 11.7941 35.6016 11.4838 35.6016 11.1003C35.6016 10.7168 35.2698 10.4065 34.8598 10.4065L2.53219 10.4065L12.3916 1.18427C12.6813 0.913246 12.6813 0.47422 12.3916 0.20326C12.2467 0.0677795 12.0569 5.74003e-06 11.8672 5.75555e-06C11.6774 5.77106e-06 11.4876 0.0677796 11.3427 0.20326L0.217254 10.6098C-0.0724269 10.8808 -0.0724269 11.3198 0.217322 11.5908Z" fill="white"/>
</svg>
