<svg width="49" height="31" viewBox="0 0 49 31" fill="none" xmlns="http://www.w3.org/2000/svg">
<path d="M47.7514 16.2282L32.9506 30.0724C32.5651 30.4329 31.9407 30.4329 31.5554 30.0724C31.1699 29.7118 31.1699 29.1278 31.5554 28.7673L44.6718 16.4986L1.66467 16.4986C1.11926 16.4986 0.677919 16.0858 0.677919 15.5756C0.677919 15.0655 1.11926 14.6527 1.66467 14.6527L44.6718 14.6527L31.5554 2.38406C31.1699 2.02351 31.1699 1.43946 31.5554 1.07899C31.748 0.89876 32.0006 0.8086 32.253 0.8086C32.5055 0.8086 32.7579 0.898761 32.9507 1.07899L47.7515 14.9231C48.1369 15.2836 48.1369 15.8677 47.7514 16.2282Z" fill="black"/>
</svg>
